<?xml version="1.0" encoding="UTF-8" standalone="yes"?>
<!DOCTYPE svg PUBLIC "-//W3C//DTD SVG 1.0//EN" "http://www.w3.org/TR/2001/REC-SVG-20010904/DTD/svg10.dtd">
<svg height="100%" viewBox="0 0 10 10" width="100%" xmlns="http://www.w3.org/2000/svg" xmlns:svg="http://www.w3.org/2000/svg" xmlns:xlink="http://www.w3.org/1999/xlink">

<path d="M 1 1  L 1 1 L 1.01288108880871 0.990467578151066 L 1.0265662425736 0.980616069080978 L 1.04112283375206 0.970440306163704 L 1.05662475471846 0.959937132077695 L 1.07315302511486 0.949106012678333 L 1.09079642277732 0.937949792252351 L 1.10965212348975 0.926475618791633 L 1.12982632705396 0.914696072344426 L 1.15143483664928 0.90263053385702 L 1.17460354443125 0.890306835688838 L 1.19946875793145 0.877763237321796 L 1.22617727817282 0.865050769374435 L 1.25488611070669 0.852235983910957 L 1.28576165455737 0.839404136393426 L 1.31897817165048 0.826662800604089 L 1.35471529247895 0.814145877436858 L 1.39315426674979 0.802017895517165 L 1.43447262856625 0.790478409503945 L 1.47883692772668 0.779766174770059 L 1.52639320225002 0.770162612375116 L 1.57725496011067 0.761993880793138 L 1.63148863421501 0.75563065925756 L 1.68909680785824 0.751484561093879 L 1.75 0.75 L 1.81401843996645 0.751640420654264 L 1.88085598064755 0.756868183848243 L 1.95008894819208 0.766118152815519 L 2.02116307227332 0.779766174770059 L 2.09340140987172 0.798095065448971 L 2.16602514716892 0.821262083021388 L 2.23818730857021 0.849272772655929 L 2.30901699437495 0.881966011250105 L 2.37766939673313 0.919013816737388 L 2.44337524528154 0.959937132077696 L 2.50548310171779 1.004135911372 L 2.56348921681996 1.05092924704338 L 2.61705210883234 1.09959973313565 L 2.66599186453287 1.1494361257909 L 2.71027659949672 1.1997695004194 L 2.75 1.25 L 2.78535426640995 1.29961329036974 L 2.81660229206495 1.34818748818253 L 2.84405191929909 1.39539236038735 L 2.86803398874989 1.44098300562505 L 2.88888490354794 1.48479016268069 L 2.9069336952571 1.52670894284937 L 2.92249312353639 1.56668732391046 L 2.93585412256314 1.60471529247895 L 2.94728285652644 1.64081514304207 L 2.95701969815084 1.67503315819016 L 2.96527954644722 1.70743270178122 L 2.97225301759676 1.73808863908641 L 2.97810815538369 1.76708293604792 L 2.98299240479018 1.7945012658683 L 2.98703467092481 1.82043045099479 L 2.99034734589208 1.84495658176349 L 2.99302823087285 1.86816367248318 L 2.99516231253173 1.89013273712955 L 2.99682337478842 1.91094118751511 L 2.99807544150676 1.93066247547185 L 2.9989740548178 1.94936591669658 L 2.99956739919106 1.96711664738971 L 2.99989728419392 1.98397567584367 L 3 2 L 3 2 L 2.99989728419392 2.01602432415633 L 2.99956739919106 2.03288335261029 L 2.9989740548178 2.05063408330342 L 2.99807544150676 2.06933752452815 L 2.99682337478842 2.08905881248489 L 2.99516231253173 2.10986726287045 L 2.99302823087285 2.13183632751682 L 2.99034734589208 2.15504341823651 L 2.98703467092481 2.17956954900521 L 2.98299240479018 2.2054987341317 L 2.97810815538369 2.23291706395208 L 2.97225301759676 2.26191136091359 L 2.96527954644722 2.29256729821878 L 2.95701969815084 2.32496684180984 L 2.94728285652644 2.35918485695793 L 2.93585412256314 2.39528470752105 L 2.92249312353639 2.43331267608954 L 2.90693369525709 2.47329105715063 L 2.88888490354794 2.51520983731931 L 2.86803398874989 2.55901699437495 L 2.84405191929909 2.60460763961265 L 2.81660229206495 2.65181251181747 L 2.78535426640995 2.70038670963026 L 2.75 2.75 L 2.71027659949672 2.8002304995806 L 2.66599186453287 2.8505638742091 L 2.61705210883234 2.90040026686435 L 2.56348921681996 2.94907075295662 L 2.50548310171779 2.99586408862799 L 2.44337524528154 3.0400628679223 L 2.37766939673313 3.08098618326261 L 2.30901699437495 3.11803398874989 L 2.23818730857021 3.15072722734407 L 2.16602514716892 3.17873791697861 L 2.09340140987172 3.20190493455103 L 2.02116307227332 3.22023382522994 L 1.95008894819208 3.23388184718448 L 1.88085598064755 3.24313181615176 L 1.81401843996645 3.24835957934573 L 1.75 3.25 L 1.68909680785824 3.24851543890612 L 1.63148863421501 3.24436934074244 L 1.57725496011067 3.23800611920686 L 1.52639320225002 3.22983738762488 L 1.47883692772668 3.22023382522994 L 1.43447262856625 3.20952159049605 L 1.39315426674979 3.19798210448283 L 1.35471529247895 3.18585412256314 L 1.31897817165048 3.17333719939591 L 1.28576165455737 3.16059586360657 L 1.25488611070669 3.14776401608904 L 1.22617727817282 3.13494923062556 L 1.19946875793145 3.1222367626782 L 1.17460354443125 3.10969316431116 L 1.15143483664928 3.09736946614298 L 1.12982632705396 3.08530392765557 L 1.10965212348975 3.07352438120837 L 1.09079642277732 3.06205020774765 L 1.07315302511486 3.05089398732167 L 1.05662475471846 3.0400628679223 L 1.04112283375206 3.0295596938363 L 1.0265662425736 3.01938393091902 L 1.01288108880872 3.00953242184893 L 1 3  Z" fill="transparent" height="8" stroke="blue" stroke-width="0.1" width="8"/>
</svg>
